<svg width="40" height="64" viewBox="0 0 40 64" fill="none" xmlns="http://www.w3.org/2000/svg">
<path d="M34.1665 0.315186H5.83278C2.61623 0.315186 0 2.93662 0 6.15912V57.8418C0 61.0643 2.61623 63.685 5.83278 63.685H34.1665C37.383 63.685 40 61.0643 40 57.8418V6.15912C40 2.93662 37.383 0.315186 34.1665 0.315186ZM16.7477 3.40973H23.2523C23.8087 3.40973 24.2602 3.86201 24.2602 4.41918C24.2602 4.97784 23.8087 5.42937 23.2523 5.42937H16.7477C16.1906 5.42937 15.7398 4.97784 15.7398 4.41918C15.7398 3.86201 16.1906 3.40973 16.7477 3.40973ZM21.9058 59.7394H18.0949C17.1874 59.7394 16.4517 59.0022 16.4517 58.0925C16.4517 57.1834 17.1874 56.4477 18.0949 56.4477H21.9058C22.8126 56.4477 23.5491 57.1834 23.5491 58.0925C23.5491 59.0022 22.8126 59.7394 21.9058 59.7394ZM35.5895 51.1669C35.5895 52.1682 34.7794 52.9798 33.7804 52.9798H6.22034C5.21982 52.9798 4.41047 52.1682 4.41047 51.1669V9.87555C4.41047 8.87503 5.21982 8.06271 6.22034 8.06271H33.7804C34.7794 8.06271 35.5895 8.87503 35.5895 9.87555V51.1669Z" fill="url(#paint0_linear_26_454)"/>
<path d="M19.8834 23.1006C14.9738 23.1006 11 27.0811 11 31.9996C11 36.9174 14.9738 40.8994 19.8834 40.8994C24.7931 40.8994 28.7676 36.9174 28.7676 31.9996C28.7676 27.0811 24.7931 23.1006 19.8834 23.1006ZM23.9428 30.4687L19.4602 34.9581C19.272 35.1485 19.0146 35.2541 18.7475 35.2541C18.4805 35.2541 18.2246 35.1485 18.0349 34.9581L15.8248 32.745C15.4306 32.35 15.4306 31.7103 15.8248 31.3168C16.2183 30.9218 16.8566 30.9218 17.2508 31.3168L18.7475 32.8164L22.5168 29.0405C22.911 28.6455 23.5485 28.6455 23.9428 29.0405C24.3363 29.4355 24.3363 30.0737 23.9428 30.4687Z" fill="url(#paint1_linear_26_454)"/>
<defs>
<linearGradient id="paint0_linear_26_454" x1="-2" y1="3.31519" x2="29.5" y2="63.8152" gradientUnits="userSpaceOnUse">
<stop stop-color="#071A46"/>
<stop offset="1" stop-color="#1140AC"/>
</linearGradient>
<linearGradient id="paint1_linear_26_454" x1="10.1116" y1="23.9432" x2="16.5273" y2="43.4303" gradientUnits="userSpaceOnUse">
<stop stop-color="#071A46"/>
<stop offset="1" stop-color="#1140AC"/>
</linearGradient>
</defs>
</svg>
