<svg width="71" height="62" viewBox="0 0 71 62" fill="none" xmlns="http://www.w3.org/2000/svg">
<path d="M13.3339 17.6199C11.4499 17.6199 9.91699 19.1507 9.91699 21.0336C9.91699 22.9165 11.4499 24.4473 13.3339 24.4473C15.2178 24.4473 16.7507 22.9154 16.7507 21.0336C16.7507 19.1507 15.2178 17.6199 13.3339 17.6199Z" fill="url(#paint0_linear_26_463)"/>
<path d="M41.6717 17.6199C39.7878 17.6199 38.2549 19.1507 38.2549 21.0336C38.2549 22.9165 39.7878 24.4473 41.6717 24.4473C43.5557 24.4473 45.0886 22.9154 45.0886 21.0336C45.0886 19.1507 43.5557 17.6199 41.6717 17.6199Z" fill="url(#paint1_linear_26_463)"/>
<path d="M27.5038 17.6199C25.6198 17.6199 24.0869 19.1507 24.0869 21.0336C24.0869 22.9165 25.6198 24.4473 27.5038 24.4473C29.3877 24.4473 30.9196 22.9154 30.9196 21.0336C30.9196 19.1507 29.3877 17.6199 27.5038 17.6199Z" fill="url(#paint2_linear_26_463)"/>
<mask id="mask0_26_463" style="mask-type:luminance" maskUnits="userSpaceOnUse" x="0" y="0" width="56" height="52">
<path d="M0 0H55.0757V51.1169H0V0Z" fill="white"/>
</mask>
<g mask="url(#mask0_26_463)">
<path d="M55.004 18.1406C55.004 8.14405 46.8725 0.0114746 36.877 0.0114746H18.127C8.13152 0.0114746 0 8.14405 0 18.1406V23.0914C0 30.8897 4.95925 37.7931 12.3391 40.2685L13.0644 40.512L12.6807 41.1741C11.696 42.8714 10.3592 45.5387 8.59329 49.3277C8.38138 49.7821 8.47626 50.3261 8.82944 50.6825C9.18157 51.0335 9.74032 51.1326 10.181 50.9281L31.4191 41.2215H36.877C46.8725 41.2215 55.004 33.0889 55.004 23.0924V18.1406ZM52.5992 23.0914C52.5992 31.7627 45.5462 38.8178 36.877 38.8178H31.1576C30.9858 38.8178 30.8129 38.8558 30.6569 38.9274L12.1841 47.371L12.9843 45.7822C13.7149 44.3316 15.0359 41.7739 15.6705 40.9464L15.7422 40.8536L15.8424 40.7924C16.1576 40.6016 16.3653 40.2832 16.4127 39.9174C16.4939 39.2796 16.0617 38.6913 15.427 38.5795C7.88271 37.2607 2.40477 30.7464 2.40477 23.0924V18.1406C2.40477 9.46926 9.45778 2.41519 18.1259 2.41519H36.877C45.5462 2.41519 52.5982 9.46926 52.5982 18.1406V23.0914H52.5992Z" fill="url(#paint3_linear_26_463)"/>
</g>
<mask id="mask1_26_463" style="mask-type:luminance" maskUnits="userSpaceOnUse" x="21" y="10" width="50" height="52">
<path d="M21.8799 10.9033H70.4423V61.9127H21.8799V10.9033Z" fill="white"/>
</mask>
<g mask="url(#mask1_26_463)">
<path d="M24.3631 46.5972L21.8877 47.7284C25.0452 50.3999 29.1157 52.0235 33.5658 52.0235H39.0237L60.2618 61.7301C60.7024 61.9346 61.2623 61.8355 61.6133 61.4844C61.9665 61.1281 62.0614 60.5841 61.8495 60.1297C60.0836 56.3407 58.7468 53.6734 57.7621 51.976L57.3784 51.314L58.1047 51.0704C65.4846 48.595 70.4428 41.6917 70.4428 33.8933V28.9425C70.4428 20.1078 64.0835 12.7501 55.7074 11.155C56.0279 12.0174 56.2883 12.9072 56.4896 13.8202C56.4938 13.8213 56.4981 13.8234 56.5023 13.8244C56.497 13.8223 56.4928 13.8213 56.4875 13.8191C56.7932 15.2118 56.9651 16.6583 56.9651 18.1437V23.0945C56.9651 34.1685 47.9564 43.1782 36.8814 43.1782H31.8484M54.03 50.7194V50.7183V50.7194Z" fill="url(#paint4_linear_26_463)"/>
</g>
<defs>
<linearGradient id="paint0_linear_26_463" x1="9.91699" y1="17.7665" x2="16.0546" y2="26.7505" gradientUnits="userSpaceOnUse">
<stop stop-color="#071A46"/>
<stop offset="1" stop-color="#1140AC"/>
</linearGradient>
<linearGradient id="paint1_linear_26_463" x1="38.2549" y1="17.7665" x2="44.3925" y2="26.7505" gradientUnits="userSpaceOnUse">
<stop stop-color="#071A46"/>
<stop offset="1" stop-color="#1140AC"/>
</linearGradient>
<linearGradient id="paint2_linear_26_463" x1="24.0869" y1="17.7665" x2="30.2249" y2="26.7497" gradientUnits="userSpaceOnUse">
<stop stop-color="#071A46"/>
<stop offset="1" stop-color="#1140AC"/>
</linearGradient>
<linearGradient id="paint3_linear_26_463" x1="1.47748e-06" y1="1.10758" x2="44.5416" y2="71.3286" gradientUnits="userSpaceOnUse">
<stop stop-color="#071A46"/>
<stop offset="1" stop-color="#1140AC"/>
</linearGradient>
<linearGradient id="paint4_linear_26_463" x1="21.8877" y1="12.2438" x2="68.1399" y2="77.0464" gradientUnits="userSpaceOnUse">
<stop stop-color="#071A46"/>
<stop offset="1" stop-color="#1140AC"/>
</linearGradient>
</defs>
</svg>
