<svg width="65" height="72" viewBox="0 0 65 72" fill="none" xmlns="http://www.w3.org/2000/svg">
<mask id="mask0_26_484" style="mask-type:luminance" maskUnits="userSpaceOnUse" x="0" y="0" width="65" height="72">
<path d="M0 0.5H64.1189V71.5H0V0.5Z" fill="white"/>
</mask>
<g mask="url(#mask0_26_484)">
<path d="M57.2534 30.0354C54.9255 38.6701 51.8287 45.8085 48.0485 51.2519C40.4955 62.129 34.455 66.1471 32.0603 67.4234C29.6656 66.1479 23.6252 62.1299 16.0713 51.2519C12.2919 45.8085 9.19432 38.6701 6.86642 30.0354C5.14127 23.6349 4.31046 18.0815 3.97488 15.4074C15.6201 5.09233 30.8923 4.36904 32.0571 4.32994C32.6069 4.34949 36.6314 4.53846 41.916 5.94921C46.8886 7.27688 54.023 9.98922 60.1449 15.4082C59.8093 18.0815 58.9794 23.6349 57.2534 30.0354ZM63.2841 13.0925C49.9626 0.819367 32.0603 0.506592 32.0603 0.506592C32.0603 0.506592 14.1572 0.819367 0.836536 13.0925C0.279405 13.6057 0.000839725 14.3542 0.0879933 15.1077C0.663858 20.1039 3.46255 39.7957 12.9297 53.4308C21.6011 65.9182 28.5636 70.0315 31.0633 71.1971C31.6954 71.4911 32.4252 71.4911 33.0565 71.1971C35.557 70.0315 42.5196 65.9182 51.1901 53.4308C60.6581 39.7957 63.456 20.1039 64.0326 15.1077C64.1198 14.3542 63.8412 13.6057 63.2841 13.0925Z" fill="url(#paint0_linear_26_484)"/>
</g>
<path d="M27.0022 21.8877C27.0022 19.1012 29.2707 16.8344 32.0596 16.8344C34.8477 16.8344 37.1169 19.1012 37.1169 21.8877V23.981H39.4521V21.8877C39.4521 17.8143 36.1354 14.5 32.0596 14.5C27.9829 14.5 24.667 17.8143 24.667 21.8877V23.981H27.0022V21.8877Z" fill="url(#paint1_linear_26_484)"/>
<path d="M33.9214 39.8182C34.0069 40.1962 33.7194 40.5554 33.3317 40.5554H30.7863C30.3994 40.5554 30.1111 40.1962 30.1966 39.8182L31.1659 35.5208C30.4931 35.1901 30.0305 34.4994 30.0305 33.7004C30.0305 32.5324 31.0193 31.5949 32.206 31.6779C33.203 31.7488 34.0102 32.5535 34.0827 33.5497C34.1454 34.4123 33.6673 35.1698 32.9529 35.5208L33.9214 39.8182ZM40.3268 24.981H23.7921C22.6314 24.981 21.6914 25.9209 21.6914 27.0808V41.9441C21.6914 43.104 22.6314 44.044 23.7921 44.044H40.3268C41.4867 44.044 42.4274 43.104 42.4274 41.9441V27.0808C42.4274 25.9209 41.4867 24.981 40.3268 24.981Z" fill="url(#paint2_linear_26_484)"/>
<path d="M25.2568 45.9106H38.8625C39.3912 45.9106 39.8326 45.5392 39.9418 45.0439H24.1768C24.2867 45.5392 24.7282 45.9106 25.2568 45.9106Z" fill="url(#paint3_linear_26_484)"/>
<defs>
<linearGradient id="paint0_linear_26_484" x1="11.4834" y1="0.506593" x2="52.6973" y2="71.3827" gradientUnits="userSpaceOnUse">
<stop stop-color="#071B49"/>
<stop offset="1" stop-color="#1141AF"/>
</linearGradient>
<linearGradient id="paint1_linear_26_484" x1="27.3042" y1="14.5" x2="31.1364" y2="25.8914" gradientUnits="userSpaceOnUse">
<stop stop-color="#071B49"/>
<stop offset="1" stop-color="#1141AF"/>
</linearGradient>
<linearGradient id="paint2_linear_26_484" x1="25.39" y1="24.981" x2="35.3662" y2="45.6657" gradientUnits="userSpaceOnUse">
<stop stop-color="#071B49"/>
<stop offset="1" stop-color="#1141AF"/>
</linearGradient>
<linearGradient id="paint3_linear_26_484" x1="26.9887" y1="45.0439" x2="27.0221" y2="46.2021" gradientUnits="userSpaceOnUse">
<stop stop-color="#071B49"/>
<stop offset="1" stop-color="#1141AF"/>
</linearGradient>
</defs>
</svg>
